<svg width="800" height="800" viewBox="0 0 512 512" xmlns="http://www.w3.org/2000/svg" xmlns:xlink="http://www.w3.org/1999/xlink" id="_x32_" xml:space="preserve" overflow="hidden"><style>
.MsftOfcThm_Background1_Fill_v2 {
 fill:#FFFFFF; 
}
</style>
<g><path d="M495.469 241.969C381.875 241.969 342.594 213.469 320.563 191.438 298.532 169.313 269.985 130.094 269.985 16.516 269.985 12.188 269.532-7.10543e-15 255.969-7.10543e-15 242.531 0 242 12.188 242 16.516 242 130.094 213.437 169.313 191.406 191.438 169.312 213.469 130.031 241.969 16.5 241.969 12.156 241.969 0 242.469 0 256.016 0 269.469 12.156 269.954 16.5 269.954 130.031 269.954 169.313 298.532 191.406 320.579 213.438 342.625 242 381.922 242 495.5 242 499.844 242.531 512 255.969 512 269.532 512 269.985 499.844 269.985 495.5 269.985 381.922 298.532 342.625 320.563 320.578 342.594 298.5 381.876 269.953 495.469 269.953 499.797 269.953 512 269.531 512 255.969 512 242.516 499.797 241.969 495.469 241.969Z" class="st0 MsftOfcThm_Background1_Fill_v2" fill="#FFFFFF"/></g></svg>